<?xml version="1.0" standalone="no"?>
<!DOCTYPE svg PUBLIC "-//W3C//DTD SVG 20010904//EN"
 "http://www.w3.org/TR/2001/REC-SVG-20010904/DTD/svg10.dtd">
<svg version="1.0" xmlns="http://www.w3.org/2000/svg"
 width="120.000000pt" height="120.000000pt" viewBox="0 0 120.000000 120.000000"
 preserveAspectRatio="xMidYMid meet">
<metadata>
Created by potrace 1.11, written by Peter Selinger 2001-2013
</metadata>
<g transform="translate(0.000000,120.000000) scale(0.100000,-0.100000)"
fill="#000000" stroke="none">
<path d="M294 1171 c-76 -30 -121 -68 -191 -161 -79 -105 -103 -202 -80 -318
9 -44 18 -58 61 -94 28 -24 77 -70 111 -103 33 -34 72 -66 86 -74 14 -7 41
-27 60 -44 20 -18 60 -52 89 -77 30 -25 61 -52 70 -60 8 -8 35 -31 60 -50 24
-19 60 -50 80 -68 88 -83 145 -106 220 -89 29 6 88 39 106 58 9 10 23 19 30
19 17 0 110 89 107 101 -2 5 1 9 6 9 18 0 61 118 61 169 0 74 8 63 -237 318
-182 190 -199 209 -216 245 -12 24 -23 35 -35 33 -11 -2 -41 24 -87 74 -99
109 -125 126 -199 127 -35 1 -78 -5 -102 -15z"/>
</g>
</svg>
